<svg xmlns="http://www.w3.org/2000/svg" width="225.242" height="50.913" viewBox="0 0 225.242 50.913"><defs><style>.a{fill:none;stroke:#4fb1e7;stroke-linecap:round;stroke-linejoin:round;}.b{fill:#9c0c4e;}.c{fill:#4fb1e7;}.d{fill:#040405;}</style></defs><g transform="translate(-50.469 -211.312)"><g transform="translate(50.976 211.816)"><path class="a" d="M92.369,238.77c-2.938,9.629-9.325,17.328-18.949,22.7a1.557,1.557,0,0,1-1.623,0c-9.829-5.373-16.212-13.071-19.151-22.7a43.937,43.937,0,0,1-1.322-17.53,1.723,1.723,0,0,1,1.011-1.318l19.459-8a1.849,1.849,0,0,1,1.217,0l19.456,8a1.74,1.74,0,0,1,1.017,1.32A39.468,39.468,0,0,1,92.369,238.77Z" transform="translate(-50.976 -211.816)"/><g transform="translate(4.71 5.472)"><path class="a" d="M89.024,265.02a45.98,45.98,0,0,1-5.166,3.548,1.5,1.5,0,0,1-1.318,0c-7.6-4.358-12.669-10.336-14.9-17.835a33.041,33.041,0,0,1-1.008-13.68,1.389,1.389,0,0,1,.806-1.014l15.2-6.282a1.329,1.329,0,0,1,1.014,0l15.2,6.283a1.611,1.611,0,0,1,.814,1.014,32.98,32.98,0,0,1-1.014,13.68h0a27.4,27.4,0,0,1-5.474,10.133" transform="translate(-66.331 -229.655)"/></g></g><path class="b" d="M110.751,269.4H106.7a.477.477,0,0,1-.5-.448h0a.173.173,0,0,1,0-.059v-4.053a.484.484,0,0,0-.448-.51h-4.112a.479.479,0,0,0-.507.448v4.112a.478.478,0,0,1-.446.507H96.566a.479.479,0,0,0-.507.448v4.112a.484.484,0,0,0,.452.507h4.112a.479.479,0,0,1,.507.448v4.112a.479.479,0,0,0,.448.507h4.112a.484.484,0,0,0,.507-.452V274.97a.474.474,0,0,1,.443-.5h.006a.189.189,0,0,1,.059,0h4.053a.484.484,0,0,0,.5-.452.153.153,0,0,0,0-.056V269.9a.477.477,0,0,0-.446-.507h0A.175.175,0,0,0,110.751,269.4Z" transform="translate(-31.254 -36.403)"/><path class="b" d="M249.667,225.41q.578,1.056,1.332,2.608t1.572,3.361q.818,1.809,1.621,3.7l1.508,3.553,1.508-3.553q.8-1.888,1.62-3.7t1.573-3.361q.754-1.552,1.332-2.608h4.545q.32,2.208.592,4.945t.48,5.7q.208,2.961.384,5.937t.3,5.6h-4.865q-.1-3.233-.256-7.041t-.48-7.682q-.578,1.344-1.284,2.977t-1.4,3.265q-.69,1.632-1.332,3.121t-1.092,2.545h-3.489q-.45-1.056-1.092-2.545t-1.333-3.121q-.69-1.632-1.4-3.265t-1.284-2.977q-.32,3.873-.48,7.682T248,247.59h-4.865q.127-2.624.3-5.6t.384-5.937q.208-2.96.48-5.7t.592-4.945Z" transform="translate(-133.22 -9.424)"/><path class="b" d="M351.715,250.209a10.946,10.946,0,0,1-.576,3.633,7.89,7.89,0,0,1-1.664,2.816,7.492,7.492,0,0,1-2.608,1.809,8.713,8.713,0,0,1-3.409.64,8.623,8.623,0,0,1-3.377-.64,7.478,7.478,0,0,1-2.608-1.809,8.265,8.265,0,0,1-1.7-2.816,10.42,10.42,0,0,1-.608-3.633,10.048,10.048,0,0,1,.625-3.617,8.2,8.2,0,0,1,1.728-2.785,7.762,7.762,0,0,1,2.625-1.793,8.446,8.446,0,0,1,3.312-.64,8.536,8.536,0,0,1,3.345.64,7.6,7.6,0,0,1,2.608,1.793,8.14,8.14,0,0,1,1.7,2.785A10.3,10.3,0,0,1,351.715,250.209Zm-4.865,0a6,6,0,0,0-.88-3.473,2.879,2.879,0,0,0-2.512-1.264,2.919,2.919,0,0,0-2.528,1.264,5.912,5.912,0,0,0-.9,3.473,6.066,6.066,0,0,0,.9,3.5,2.9,2.9,0,0,0,2.528,1.3,2.857,2.857,0,0,0,2.512-1.3A6.156,6.156,0,0,0,346.85,250.209Z" transform="translate(-197.021 -20.492)"/><path class="b" d="M415.052,250.209a10.946,10.946,0,0,1-.576,3.633,7.89,7.89,0,0,1-1.664,2.816,7.5,7.5,0,0,1-2.608,1.809,8.714,8.714,0,0,1-3.409.64,8.626,8.626,0,0,1-3.377-.64,7.479,7.479,0,0,1-2.608-1.809,8.265,8.265,0,0,1-1.7-2.816,10.42,10.42,0,0,1-.608-3.633,10.05,10.05,0,0,1,.624-3.617,8.2,8.2,0,0,1,1.728-2.785,7.765,7.765,0,0,1,2.624-1.793,8.45,8.45,0,0,1,3.313-.64,8.537,8.537,0,0,1,3.345.64,7.6,7.6,0,0,1,2.608,1.793,8.144,8.144,0,0,1,1.7,2.785A10.287,10.287,0,0,1,415.052,250.209Zm-4.865,0a6,6,0,0,0-.88-3.473,2.88,2.88,0,0,0-2.513-1.264,2.918,2.918,0,0,0-2.528,1.264,5.912,5.912,0,0,0-.9,3.473,6.066,6.066,0,0,0,.9,3.5,2.9,2.9,0,0,0,2.528,1.3,2.858,2.858,0,0,0,2.513-1.3A6.156,6.156,0,0,0,410.188,250.209Z" transform="translate(-240.93 -20.492)"/><path class="b" d="M463.25,259.67q-1.638-3.2-3.325-7.49t-3.2-9.346h5.057q.321,1.248.755,2.7t.9,2.945q.466,1.488.932,2.9t.917,2.561q.417-1.152.9-2.561t.948-2.9q.466-1.488.9-2.945t.755-2.7h4.932q-1.51,5.057-3.194,9.346t-3.322,7.49Z" transform="translate(-281.295 -21.504)"/><path class="b" d="M532.742,242.835q-1.444,4.866-3.016,9.122t-3.434,8.258a18.766,18.766,0,0,1-1.346,2.449,7.547,7.547,0,0,1-1.475,1.664,5.2,5.2,0,0,1-1.811.96,8.2,8.2,0,0,1-2.355.3,9.652,9.652,0,0,1-2.068-.208,9.23,9.23,0,0,1-1.554-.464l.832-3.809a8.143,8.143,0,0,0,1.313.352,7.387,7.387,0,0,0,1.217.1,2.665,2.665,0,0,0,1.969-.688,5.532,5.532,0,0,0,1.17-1.9q-1.634-3.2-3.267-7.185a89.505,89.505,0,0,1-3.074-8.946H520.9q.321,1.248.755,2.7t.917,2.945q.481,1.488.98,2.9t.949,2.561q.417-1.152.868-2.561t.884-2.9q.433-1.488.836-2.945t.723-2.7Z" transform="translate(-322.166 -21.504)"/><path class="c" d="M585.027,225.41q.578,1.056,1.332,2.608t1.572,3.361q.818,1.809,1.621,3.7l1.508,3.553q.706-1.664,1.508-3.553t1.62-3.7q.819-1.808,1.573-3.361t1.332-2.608h4.545q.32,2.208.592,4.945t.48,5.7q.208,2.961.384,5.937t.3,5.6h-4.865q-.1-3.233-.256-7.041t-.48-7.682q-.578,1.344-1.284,2.977t-1.4,3.265q-.69,1.632-1.332,3.121t-1.092,2.545H589.2q-.45-1.056-1.091-2.545t-1.333-3.121q-.69-1.632-1.4-3.265t-1.284-2.977q-.321,3.873-.48,7.682t-.256,7.041H578.5q.127-2.624.3-5.6t.384-5.937q.208-2.96.48-5.7t.592-4.945Z" transform="translate(-365.713 -9.424)"/><path class="c" d="M670.529,250.368a10.3,10.3,0,0,1,.688-3.921,8.407,8.407,0,0,1,1.809-2.8,7.528,7.528,0,0,1,2.577-1.7,8.065,8.065,0,0,1,2.992-.576,7.44,7.44,0,0,1,5.665,2.192q2.08,2.193,2.08,6.449,0,.417-.032.912t-.064.88H675.426a3.168,3.168,0,0,0,1.376,2.336,5.532,5.532,0,0,0,3.265.864,13.8,13.8,0,0,0,2.577-.24,9.7,9.7,0,0,0,2.064-.592l.64,3.873a6.547,6.547,0,0,1-1.024.384,13.376,13.376,0,0,1-1.424.336q-.784.144-1.68.24a16.871,16.871,0,0,1-1.792.1,10.611,10.611,0,0,1-3.953-.672,7.7,7.7,0,0,1-2.784-1.84,7.3,7.3,0,0,1-1.632-2.769A10.973,10.973,0,0,1,670.529,250.368Zm11.2-1.824a4.937,4.937,0,0,0-.208-1.184,2.971,2.971,0,0,0-.544-1.024,2.91,2.91,0,0,0-.928-.736,3.025,3.025,0,0,0-1.392-.288,3.2,3.2,0,0,0-1.376.272,2.85,2.85,0,0,0-.96.72,3.224,3.224,0,0,0-.592,1.04,6.82,6.82,0,0,0-.3,1.2Z" transform="translate(-429.515 -20.492)"/><path class="c" d="M747.118,241.042q-.641.192-1.473.368t-1.744.3q-.912.127-1.856.208t-1.808.08a10.6,10.6,0,0,1-3.713-.608,7.457,7.457,0,0,1-2.753-1.744,7.566,7.566,0,0,1-1.712-2.753,10.5,10.5,0,0,1-.592-3.633,12.428,12.428,0,0,1,.512-3.7,8.033,8.033,0,0,1,1.472-2.8,6.3,6.3,0,0,1,2.352-1.76,7.892,7.892,0,0,1,3.185-.608,7.5,7.5,0,0,1,1.776.192,9.667,9.667,0,0,1,1.584.544v-7.617l4.769-.768Zm-10.786-8a5.842,5.842,0,0,0,.992,3.553,3.426,3.426,0,0,0,2.945,1.344q.64,0,1.184-.048t.9-.112V229.1a4.14,4.14,0,0,0-1.168-.48,5.624,5.624,0,0,0-1.456-.192Q736.332,228.431,736.332,233.04Z" transform="translate(-471.761 -3.42)"/><g transform="translate(110.698 250.372)"><path class="d" d="M251.791,338.135q-.369.4-.834.9t-.971,1.013q-.507.519-1.007,1.019t-.941.93a10.612,10.612,0,0,1,1.084.882q.572.525,1.12,1.12t1.031,1.215a10.246,10.246,0,0,1,.8,1.18h-1.359a11.7,11.7,0,0,0-.822-1.126q-.465-.566-.983-1.084t-1.048-.959a9.259,9.259,0,0,0-1.031-.751v3.92h-1.156v-8.257h1.156v3.646q.417-.393.917-.888t.989-.995q.489-.5.924-.959t.733-.8Z" transform="translate(-245.679 -337.944)"/><path class="d" d="M273.026,346.392v-8.257h5.04v.989h-3.885v2.455h3.456v.965h-3.456V345.4h4.182v.989Z" transform="translate(-264.638 -337.944)"/><path class="d" d="M298.121,346.392v-8.257h5.04v.989h-3.884v2.455h3.455v.965h-3.455V345.4h4.182v.989Z" transform="translate(-282.035 -337.944)"/><path class="d" d="M325.408,337.862a4.6,4.6,0,0,1,2.675.662,2.257,2.257,0,0,1,.935,1.972,2.682,2.682,0,0,1-.256,1.221,2.1,2.1,0,0,1-.739.822,3.372,3.372,0,0,1-1.174.459,7.732,7.732,0,0,1-1.561.143h-.918V346.2h-1.156v-8.139a6.624,6.624,0,0,1,1.09-.161Q324.907,337.862,325.408,337.862Zm.1,1.013q-.739,0-1.132.036v3.241h.87a6.706,6.706,0,0,0,1.072-.077,2.417,2.417,0,0,0,.8-.262,1.293,1.293,0,0,0,.506-.506,1.68,1.68,0,0,0,.179-.822,1.517,1.517,0,0,0-.185-.786,1.4,1.4,0,0,0-.5-.495,2.166,2.166,0,0,0-.733-.256A5.225,5.225,0,0,0,325.5,338.875Z" transform="translate(-299.432 -337.755)"/><path class="d" d="M361.633,338.135h1.156v8.257h-1.156Z" transform="translate(-326.066 -337.944)"/><path class="d" d="M378.627,338.135v1h-2.6v7.257h-1.156v-7.257h-2.6v-1Z" transform="translate(-333.444 -337.944)"/><path class="d" d="M412.174,361.152a.811.811,0,0,1-.214.56.834.834,0,0,1-1.168,0,.839.839,0,0,1,0-1.12.834.834,0,0,1,1.168,0A.811.811,0,0,1,412.174,361.152Z" transform="translate(-359.998 -353.348)"/><path class="d" d="M439.292,345.248q-.119-.286-.316-.727t-.423-.953q-.226-.513-.482-1.055t-.483-1.025q-.226-.482-.423-.864t-.316-.584q-.131,1.406-.214,3.044t-.143,3.307H435.36q.048-1.072.107-2.163t.137-2.145q.077-1.055.167-2.055t.2-1.894h1.013q.322.524.691,1.239t.739,1.5q.369.78.715,1.561l.631,1.424q.286-.643.632-1.424t.715-1.561q.369-.78.739-1.5t.691-1.239h1.013q.4,3.992.608,8.257h-1.132q-.06-1.668-.143-3.307t-.214-3.044q-.119.2-.316.584t-.423.864q-.227.483-.483,1.025t-.483,1.055q-.226.512-.423.953t-.316.727Z" transform="translate(-377.178 -337.944)"/><path class="d" d="M471.758,341.826a5.13,5.13,0,0,1,.316-1.87,3.872,3.872,0,0,1,.858-1.353,3.558,3.558,0,0,1,1.263-.816,4.276,4.276,0,0,1,1.531-.274,4.146,4.146,0,0,1,1.507.274,3.521,3.521,0,0,1,1.245.816,3.918,3.918,0,0,1,.852,1.353,5.7,5.7,0,0,1,0,3.741,3.911,3.911,0,0,1-.852,1.352,3.513,3.513,0,0,1-1.245.816,4.14,4.14,0,0,1-1.507.274,4.27,4.27,0,0,1-1.531-.274,3.55,3.55,0,0,1-1.263-.816,3.866,3.866,0,0,1-.858-1.352A5.13,5.13,0,0,1,471.758,341.826Zm1.216,0a4.58,4.58,0,0,0,.19,1.364,3.053,3.053,0,0,0,.542,1.043,2.376,2.376,0,0,0,.858.661,2.7,2.7,0,0,0,1.138.232,2.659,2.659,0,0,0,1.132-.232,2.394,2.394,0,0,0,.852-.661,3.058,3.058,0,0,0,.542-1.043,4.981,4.981,0,0,0,0-2.729,3.054,3.054,0,0,0-.542-1.042,2.391,2.391,0,0,0-.852-.662,2.66,2.66,0,0,0-1.132-.233,2.7,2.7,0,0,0-1.138.233,2.373,2.373,0,0,0-.858.662,3.048,3.048,0,0,0-.542,1.042A4.581,4.581,0,0,0,472.974,341.826Z" transform="translate(-402.412 -337.513)"/><path class="d" d="M509.947,338.135q-.453,1.31-.864,2.425t-.8,2.115q-.393,1-.781,1.912t-.792,1.805h-1.084q-.405-.894-.792-1.805t-.786-1.912q-.4-1-.816-2.115t-.858-2.425h1.275q.644,1.883,1.263,3.622t1.275,3.265q.655-1.513,1.275-3.259t1.251-3.628Z" transform="translate(-423.633 -337.944)"/><path class="d" d="M533.718,346.392v-8.257h5.04v.989h-3.885v2.455h3.456v.965h-3.456V345.4h4.183v.989Z" transform="translate(-445.367 -337.944)"/><path class="d" d="M570.7,338.135h1.156v8.257H570.7Z" transform="translate(-471.004 -337.944)"/><path class="d" d="M587.693,338.135v1h-2.6v7.257H583.94v-7.257h-2.6v-1Z" transform="translate(-478.383 -337.944)"/><path class="d" d="M621.241,361.152a.811.811,0,0,1-.215.56.834.834,0,0,1-1.167,0,.839.839,0,0,1,0-1.12.834.834,0,0,1,1.167,0A.811.811,0,0,1,621.241,361.152Z" transform="translate(-504.936 -353.348)"/><path class="d" d="M645.655,345.139q1.811,0,1.811-1.239a1.242,1.242,0,0,0-.161-.649,1.566,1.566,0,0,0-.435-.465,3.049,3.049,0,0,0-.626-.34q-.352-.143-.745-.286a7.619,7.619,0,0,1-.858-.352,3,3,0,0,1-.7-.465,1.972,1.972,0,0,1-.471-.637,2.1,2.1,0,0,1-.173-.894,2.069,2.069,0,0,1,.739-1.692,3.116,3.116,0,0,1,2.037-.608,5.391,5.391,0,0,1,1.365.161,3.119,3.119,0,0,1,.9.352l-.369.941a3.274,3.274,0,0,0-.745-.3,4,4,0,0,0-1.15-.149,2.555,2.555,0,0,0-.619.072,1.59,1.59,0,0,0-.5.214,1.06,1.06,0,0,0-.339.363,1.03,1.03,0,0,0-.125.518,1.1,1.1,0,0,0,.131.56,1.292,1.292,0,0,0,.369.4,3.132,3.132,0,0,0,.554.316q.316.143.7.286.536.214.983.429a3.215,3.215,0,0,1,.775.512,2.056,2.056,0,0,1,.506.709,2.487,2.487,0,0,1,.179,1,1.947,1.947,0,0,1-.792,1.668,3.711,3.711,0,0,1-2.234.584,5.781,5.781,0,0,1-.9-.066,6.737,6.737,0,0,1-.732-.155,4.187,4.187,0,0,1-.554-.191q-.232-.1-.363-.173l.345-.953a5.192,5.192,0,0,0,.834.346A4.289,4.289,0,0,0,645.655,345.139Z" transform="translate(-521.201 -337.513)"/><path class="d" d="M668.743,338.135H669.9v8.257h-1.156Z" transform="translate(-538.975 -337.944)"/><path class="d" d="M685.3,345.248q-.119-.286-.316-.727t-.423-.953q-.226-.513-.482-1.055t-.483-1.025q-.226-.482-.423-.864t-.316-.584q-.132,1.406-.215,3.044t-.143,3.307h-1.132q.048-1.072.107-2.163t.137-2.145q.077-1.055.167-2.055t.2-1.894h1.013q.322.524.691,1.239t.739,1.5q.369.78.715,1.561l.631,1.424.632-1.424q.345-.781.715-1.561t.739-1.5q.369-.715.691-1.239h1.013q.4,3.992.608,8.257H689.03q-.06-1.668-.143-3.307t-.214-3.044q-.119.2-.316.584t-.423.864q-.226.483-.482,1.025t-.482,1.055q-.227.512-.423.953t-.316.727Z" transform="translate(-547.727 -337.944)"/><path class="d" d="M721.047,337.862a4.594,4.594,0,0,1,2.675.662,2.257,2.257,0,0,1,.935,1.972,2.678,2.678,0,0,1-.256,1.221,2.1,2.1,0,0,1-.739.822,3.369,3.369,0,0,1-1.173.459,7.734,7.734,0,0,1-1.561.143h-.917V346.2h-1.156v-8.139a6.632,6.632,0,0,1,1.091-.161Q720.546,337.862,721.047,337.862Zm.1,1.013q-.739,0-1.132.036v3.241h.87a6.7,6.7,0,0,0,1.072-.077,2.416,2.416,0,0,0,.8-.262,1.3,1.3,0,0,0,.507-.506,1.682,1.682,0,0,0,.179-.822,1.518,1.518,0,0,0-.185-.786,1.392,1.392,0,0,0-.5-.495,2.166,2.166,0,0,0-.733-.256A5.228,5.228,0,0,0,721.142,338.875Z" transform="translate(-573.715 -337.755)"/><path class="d" d="M750.354,345.391v1h-4.969v-8.257h1.156v7.256Z" transform="translate(-592.109 -337.944)"/><path class="d" d="M763.8,346.392V343.08q-.822-1.275-1.549-2.514t-1.37-2.431h1.358q.453.977,1.013,1.984t1.156,1.936q.583-.929,1.144-1.936t1.025-1.984h1.287q-.643,1.192-1.37,2.425t-1.537,2.5v3.336Z" transform="translate(-602.854 -337.944)"/></g></g></svg>